<?xml version="1.0" encoding="UTF-8"?><svg xmlns="http://www.w3.org/2000/svg" xmlns:xlink="http://www.w3.org/1999/xlink" viewBox="0 0 79.73 56.48"><defs><style>.e{fill:url(#d);}.f{fill:#fff;}</style><radialGradient id="d" cx="-19009.96" cy="3713.09" fx="-19009.96" fy="3713.09" r="186.8" gradientTransform="translate(3753.68 19123.58) rotate(90)" gradientUnits="userSpaceOnUse"><stop offset="0" stop-color="#93a9ff"/><stop offset="1" stop-color="#e0e3f9"/></radialGradient></defs><g id="a"/><g id="b"><g id="c"><path class="f" d="M0,56.48v-15.87C0,19.29,16.43,1.17,37.72,.06c13.61-.71,25.82,5.41,33.54,15.25,.18,.22-.12,.51-.34,.33-5.42-4.44-12.35-7.1-19.88-7.1-8.65,0-16.48,3.5-22.17,9.17-5.43,5.45-8.86,12.85-9.15,21.03l-.02,1.14v16.6H0Z"/><path class="e" d="M79.49,56.48h-19.21c-.13,0-.24-.11-.24-.24v-15.65c0-10.82-8.2-20.29-19-20.89-2.77-.15-5.42,.25-7.86,1.12-.24,.09-.45-.21-.26-.39,4.96-4.96,11.82-8.03,19.4-8.03s14.42,3.06,19.39,8.03c4.97,4.97,8.03,11.84,8.03,19.41v16.4c0,.13-.11,.24-.24,.24Z"/><path class="f" d="M0,56.48v-15.87C0,19.29,16.43,1.17,37.72,.06c13.61-.71,25.82,5.41,33.54,15.25,.18,.22-.12,.51-.34,.33-5.42-4.44-12.35-7.1-19.88-7.1-8.65,0-16.48,3.5-22.17,9.17-5.43,5.45-8.86,12.85-9.15,21.03l-.02,1.14v16.6H0Z"/><path class="e" d="M79.49,56.48h-19.21c-.13,0-.24-.11-.24-.24v-15.65c0-10.82-8.2-20.29-19-20.89-2.77-.15-5.42,.25-7.86,1.12-.24,.09-.45-.21-.26-.39,4.96-4.96,11.82-8.03,19.4-8.03s14.42,3.06,19.39,8.03c4.97,4.97,8.03,11.84,8.03,19.41v16.4c0,.13-.11,.24-.24,.24Z"/></g></g></svg>