<?xml version="1.0" encoding="UTF-8"?><svg xmlns="http://www.w3.org/2000/svg" xmlns:xlink="http://www.w3.org/1999/xlink" viewBox="0 0 495.66 127.49"><defs><style>.g{fill:url(#e);}.h{fill:url(#d);}.i{fill:url(#f);}.j{font-family:Poppins-Regular, Poppins;font-size:89.72px;letter-spacing:-.03em;}.j,.k{fill:#fff;}</style><radialGradient id="d" cx="75.56" cy="70.94" fx="75.56" fy="70.94" r="124.19" gradientTransform="matrix(1, 0, 0, 1, 0, 0)" gradientUnits="userSpaceOnUse"><stop offset="0" stop-color="#5f80fb"/><stop offset="1" stop-color="#e0e3f9"/></radialGradient><linearGradient id="e" x1="79.7" y1="103.79" x2="-11.33" y2="61.71" gradientTransform="matrix(1, 0, 0, 1, 0, 0)" gradientUnits="userSpaceOnUse"><stop offset="0" stop-color="#fff"/><stop offset="1" stop-color="#5f80fb"/></linearGradient><radialGradient id="f" cx="-17663.78" cy="-1580.46" fx="-17663.78" fy="-1580.46" r="124.19" gradientTransform="translate(-17646.38 -1548.48) rotate(-180)" gradientUnits="userSpaceOnUse"><stop offset="0" stop-color="#5f80fb"/><stop offset="1" stop-color="#e0e3f9"/></radialGradient></defs><g id="a"/><g id="b"><g id="c"><g><text class="j" transform="translate(93.18 76.17)"><tspan x="0" y="0">enthouse</tspan></text><path class="k" d="M48.01,81.39h4.84c.09,0,.16-.07,.16-.16V18.26c0-.09,.07-.16,.16-.16h14.01c5.44,.2,10.36,2.49,13.98,6.1,3.77,3.78,6.1,8.99,6.1,14.74,0,5.01-1.77,9.62-4.72,13.22-.12,.15,.07,.34,.22,.23,6.43-5.04,10.47-12.97,10.16-21.82-.5-14.39-12.81-25.56-27.21-25.56h-25.64c-.09,0-.16,.07-.16,.16V73.3c0,4.47,3.62,8.1,8.1,8.1Z"/><path class="h" d="M37.57,45.07v12.77c0,.09-.07,.16-.16,.16h-10.4c-7.19,0-13.49,5.45-13.89,12.63-.1,1.84,.17,3.6,.75,5.22,.06,.16-.14,.3-.26,.17-3.3-3.3-5.34-7.86-5.34-12.89s2.04-9.59,5.34-12.89c3.3-3.3,7.87-5.34,12.91-5.34h10.9c.09,0,.16,.07,.16,.16Z"/><path class="g" d="M26.51,84.82h38.47c4.47,0,8.09,3.62,8.09,8.09v4.85c0,.09-.07,.16-.16,.16H27.25c-14.39,0-26.71-11.15-27.23-25.53-.32-8.85,3.72-16.79,10.15-21.84,.15-.12,.34,.08,.22,.23-2.95,3.59-4.73,8.21-4.73,13.21,0,11.26,8.93,20.43,20.09,20.82h.76Z"/><path class="i" d="M55.39,57.85v-12.77c0-.09,.07-.16,.16-.16h10.4c7.19,0,13.49-5.45,13.89-12.63,.1-1.84-.17-3.6-.75-5.22-.06-.16,.14-.3,.26-.17,3.3,3.3,5.34,7.86,5.34,12.89s-2.04,9.59-5.34,12.89c-3.3,3.3-7.87,5.34-12.91,5.34h-10.9c-.09,0-.16-.07-.16-.16Z"/></g></g></g></svg>