<?xml version="1.0" encoding="UTF-8"?><svg xmlns="http://www.w3.org/2000/svg" xmlns:xlink="http://www.w3.org/1999/xlink" viewBox="0 0 271.81 271.77"><defs><style>.g{fill:url(#e);}.h{fill:url(#d);}.i{fill:url(#f);}.j{fill:#3b58e1;}</style><radialGradient id="d" cx="220.99" cy="192.86" fx="220.99" fy="192.86" r="363.22" gradientTransform="matrix(1, 0, 0, 1, 0, 0)" gradientUnits="userSpaceOnUse"><stop offset="0" stop-color="#3b58e1"/><stop offset="1" stop-color="#94a3ff"/></radialGradient><linearGradient id="e" x1="233.12" y1="288.95" x2="-33.14" y2="165.86" gradientTransform="matrix(1, 0, 0, 1, 0, 0)" gradientUnits="userSpaceOnUse"><stop offset="0" stop-color="#3b58e1"/><stop offset="1" stop-color="#94a3ff"/></linearGradient><radialGradient id="f" cx="-19468.28" cy="149.17" fx="-19468.28" fy="149.17" r="363.22" gradientTransform="translate(-19417.4 228.08) rotate(-180)" xlink:href="#d"/></defs><g id="a"/><g id="b"><g id="c"><g><path class="j" d="M140.41,223.43h14.15c.26,0,.47-.21,.47-.47V38.77c0-.26,.21-.47,.47-.47h38.77l2.21,.04c15.92,.55,30.3,7.23,40.9,17.79,11.02,11.06,17.83,26.3,17.83,43.11,0,14.65-5.18,28.13-13.81,38.66-.35,.42,.21,1,.64,.66,18.8-14.74,30.61-37.92,29.72-63.81C270.31,32.68,234.29,0,192.19,0H117.21c-.26,0-.47,.21-.47,.47V199.75c0,13.08,10.6,23.68,23.68,23.68Z"/><path class="h" d="M109.88,117.21v37.36c0,.26-.21,.47-.47,.47h-30.43c-21.04,0-39.45,15.94-40.63,36.95-.3,5.38,.48,10.53,2.18,15.28,.17,.48-.41,.87-.77,.51-9.65-9.65-15.61-22.99-15.61-37.71s5.96-28.05,15.62-37.71c9.66-9.66,23.02-15.62,37.75-15.62h31.88c.26,0,.47,.21,.47,.47Z"/><path class="g" d="M77.54,233.47h112.52c13.07,0,23.66,10.59,23.66,23.66v14.17c0,.26-.21,.47-.47,.47H79.7c-42.08,0-78.12-32.61-79.65-74.66-.94-25.89,10.87-49.12,29.69-63.89,.43-.34,.99,.24,.64,.66-8.63,10.5-13.83,24-13.83,38.64,0,32.94,26.13,59.75,58.77,60.9l2.21,.04Z"/><path class="i" d="M161.99,154.57v-37.36c0-.26,.21-.47,.47-.47h30.43c21.04,0,39.45-15.94,40.63-36.95,.3-5.38-.48-10.53-2.18-15.28-.17-.48,.41-.87,.77-.51,9.65,9.65,15.61,22.99,15.61,37.71s-5.96,28.05-15.62,37.71c-9.66,9.66-23.02,15.62-37.75,15.62h-31.88c-.26,0-.47-.21-.47-.47Z"/></g></g></g></svg>